<svg xmlns="http://www.w3.org/2000/svg" width="35.999" height="23.658" viewBox="0 0 35.999 23.658">
    <g>
        <path d="M33.88 102.009a.527.527 0 1 0-.682.8 4.245 4.245 0 0 1 1.747 3.133 2.54 2.54 0 0 1-.8 1.877c-.9.9-2.567 1.566-4.963 1.987a48.122 48.122 0 0 1-8.237.555c-5.238-.007-8.933-.46-11.245-1.382q1.336-.95 2.865-2.287a1.877 1.877 0 0 0 3.311-1.034 11.2 11.2 0 0 0 .005-2.083q1.388-1.385 2.511-2.622a7.118 7.118 0 0 1 .962 4.343 1.9 1.9 0 0 0 1.694 2.071 1.879 1.879 0 0 0 2.052-1.7 10.9 10.9 0 0 0-1.277-6.3 28.342 28.342 0 0 1 2.959.245 7.591 7.591 0 0 1 1.613 3.614 7.234 7.234 0 0 1 0 2.07 1.883 1.883 0 1 0 3.726.541 11.048 11.048 0 0 0-.006-3.161 10.827 10.827 0 0 0-.443-1.849 15.735 15.735 0 0 1 1.5.661.527.527 0 0 0 .478-.94 24.67 24.67 0 0 0-11.02-2.239q.426-.552.793-1.076c1.545-2.2 2.3-4.009 2.3-5.52a3.594 3.594 0 0 0-1.074-2.637c-1.491-1.487-4.016-1.721-7.108-.66a24.6 24.6 0 0 0-8.949 5.916C2.524 98.385 0 103.143 0 106.75a4.943 4.943 0 0 0 1.317 3.6 3.584 3.584 0 0 0 2.63 1.069 8.117 8.117 0 0 0 3.812-1.2q.443-.245.91-.542c2.4 1.162 6.427 1.732 12.278 1.74a50.777 50.777 0 0 0 8.421-.571c2.65-.466 4.458-1.212 5.526-2.28a3.593 3.593 0 0 0 1.1-2.624 5.25 5.25 0 0 0-2.12-3.936zm-5.5-1.616a9.872 9.872 0 0 1 .7 2.447 9.991 9.991 0 0 1 0 2.859.824.824 0 0 1-.934.708.843.843 0 0 1-.7-.954 8.286 8.286 0 0 0 0-2.372 8.374 8.374 0 0 0-1.2-3.217c.741.146 1.455.322 2.136.528zm-13.55 5.169a.823.823 0 0 1-1.473.432q.736-.668 1.519-1.424c0 .33-.014.662-.046.992zm7.092-2.847a9.99 9.99 0 0 1 .133 2.857.827.827 0 0 1-.9.751.843.843 0 0 1-.746-.921 8.195 8.195 0 0 0-1.279-5.268q.331-.381.638-.749c.276-.01.555-.018.835-.021a10 10 0 0 1 1.319 3.351zm-8.588-12.177a9.872 9.872 0 0 1 2.222 1.236 10 10 0 0 1 2.025 2.018.823.823 0 0 1-.1 1.109.845.845 0 0 1-1.236-.124A8.287 8.287 0 0 0 14.57 93.1a8.374 8.374 0 0 0-3.12-1.428c.627-.42 1.256-.8 1.884-1.137zM2.988 100.7a9.867 9.867 0 0 1 2.3 1.146 10 10 0 0 1 2.112 1.929.824.824 0 0 1-.046 1.113.844.844 0 0 1-1.239-.069 8.294 8.294 0 0 0-1.753-1.6 8.21 8.21 0 0 0-2.14-1.019q.338-.738.766-1.493zm4.26 8.6c-2.376 1.316-4.072 1.415-5.186.3a3.87 3.87 0 0 1-1.007-2.853 10.234 10.234 0 0 1 .757-3.577 7.183 7.183 0 0 1 1.965.922 7.238 7.238 0 0 1 1.53 1.4 1.9 1.9 0 0 0 2.8.144 1.874 1.874 0 0 0 .114-2.531 11.052 11.052 0 0 0-2.337-2.129 10.9 10.9 0 0 0-2.344-1.194c.432-.684.914-1.37 1.44-2.046a7.776 7.776 0 0 1 3.911 1.258 7.234 7.234 0 0 1 1.53 1.4A1.882 1.882 0 1 0 13.334 98a11.2 11.2 0 0 0-1.379-1.4.527.527 0 1 0-.683.8 10.135 10.135 0 0 1 1.248 1.268.826.826 0 0 1-.106 1.168.841.841 0 0 1-1.178-.124 8.291 8.291 0 0 0-1.753-1.6 8.6 8.6 0 0 0-3.7-1.367q.627-.734 1.321-1.442a10.22 10.22 0 0 1 2.224.805.527.527 0 0 0 .474-.942 11.152 11.152 0 0 0-1.823-.719 28.326 28.326 0 0 1 2.268-1.92 7.592 7.592 0 0 1 3.694 1.415 7.238 7.238 0 0 1 1.466 1.462 1.906 1.906 0 0 0 2.789.27 1.873 1.873 0 0 0 .229-2.523 11.048 11.048 0 0 0-2.239-2.231 10.832 10.832 0 0 0-1.621-.994q.663-.3 1.315-.52a9.9 9.9 0 0 1 3.162-.6 3.911 3.911 0 0 1 2.859 1.01 2.541 2.541 0 0 1 .764 1.89c0 1.269-.708 2.923-2.1 4.914a26.925 26.925 0 0 1-2.476 3.1c-3.142 3.27-6.948 7.421-10.836 9.574z" transform="translate(0 -87.761)"/>
    </g>
</svg>
