<svg xmlns="http://www.w3.org/2000/svg" id="Group_136" width="21.785" height="19.971" viewBox="0 0 21.785 19.971">
    <defs>
        <style>
            .cls-1{fill:#3d3d3d}
        </style>
    </defs>
    <path id="Path_52" d="M98.389 323.154a2.595 2.595 0 1 0 2.594 2.595 2.595 2.595 0 0 0-2.594-2.595zm0 4.235a1.641 1.641 0 1 1 1.641-1.641 1.641 1.641 0 0 1-1.641 1.641z" class="cls-1" transform="translate(-91.217 -308.372)"/>
    <path id="Path_53" d="M21.309 18.2H4.468l-.343-1.92A2.867 2.867 0 0 0 1.8 13.962l-1.242-.22a.477.477 0 1 0-.167.94l1.25.219a1.907 1.907 0 0 1 1.545 1.545l1.688 9.524a2.38 2.38 0 0 0 2.347 1.97h10.015a2.378 2.378 0 0 0 2.285-1.693l2.242-7.431a.5.5 0 0 0-.072-.424.483.483 0 0 0-.382-.192zm-2.7 7.764a1.421 1.421 0 0 1-1.369 1.016H7.225a1.424 1.424 0 0 1-1.407-1.18L4.64 19.151h16.03z" class="cls-1" transform="translate(.003 -13.735)"/>
    <path id="Path_54" d="M308.04 323.154a2.595 2.595 0 1 0 2.595 2.595 2.594 2.594 0 0 0-2.595-2.595zm0 4.235a1.641 1.641 0 1 1 1.641-1.641 1.641 1.641 0 0 1-1.641 1.641z" class="cls-1" transform="translate(-290.853 -308.372)"/>
</svg>
