<svg xmlns="http://www.w3.org/2000/svg" width="35.497" height="35.698" viewBox="0 0 35.497 35.698">
    <g>
        <g>
            <g>
                <path d="M0 0H1.046V1.046H0z" transform="translate(9.998 33.345)"/>
            </g>
        </g>
        <g>
            <g>
                <path d="M112.87 352.339a3.643 3.643 0 0 0-2.415-.893l-.5.01-.01.5a3.077 3.077 0 0 0 3.282 3.308h.025l.5-.01.01-.5a3.644 3.644 0 0 0-.892-2.415zm-1.294 1.294a2.127 2.127 0 0 1-.523-1.077 1.826 1.826 0 0 1 1.6 1.6 2.129 2.129 0 0 1-1.077-.523z" transform="translate(7.565 24.504) translate(-109.943 -351.446)"/>
            </g>
        </g>
        <g>
            <g>
                <path d="M272.213 243.376l-.292-.408-.42.275a3.079 3.079 0 0 0-.858 4.6l.292.408.42-.275a3.079 3.079 0 0 0 .858-4.6zm-.4 2.3a2.126 2.126 0 0 1-.593 1.04 1.827 1.827 0 0 1 .414-2.224 2.126 2.126 0 0 1 .18 1.189z" transform="translate(18.722 16.941) translate(-269.972 -242.968)"/>
            </g>
        </g>
        <g>
            <g>
                <path d="M85.382 439.446l-.028-.5-.5.007a2.84 2.84 0 0 0-2.937 3.154l.028.5.5-.007a2.84 2.84 0 0 0 2.937-3.154zm-1.509 1.539a1.822 1.822 0 0 1-.861.475 1.579 1.579 0 0 1 1.274-1.368 1.823 1.823 0 0 1-.413.893z" transform="translate(5.61 30.605) translate(-81.912 -438.945)"/>
            </g>
        </g>
        <g>
            <g>
                <path d="M405.192 206.41l-.01-.5-.5-.01a3.079 3.079 0 0 0-3.308 3.308l.01.5.5.01h.025a3.077 3.077 0 0 0 3.282-3.308zm-1.632 1.675a2.126 2.126 0 0 1-1.077.523 1.827 1.827 0 0 1 1.6-1.6 2.13 2.13 0 0 1-.524 1.077z" transform="translate(27.884 14.356) translate(-401.372 -205.898)"/>
            </g>
        </g>
        <g>
            <g>
                <path d="M33.056 159.039l-.258-.43-.441.24a3.079 3.079 0 0 0-1.228 4.514l.258.43.441-.24a3.079 3.079 0 0 0 1.228-4.514zm-.585 2.265a2.125 2.125 0 0 1-.675.988 1.827 1.827 0 0 1 .593-2.183 2.13 2.13 0 0 1 .082 1.191z" transform="translate(2.034 11.059) translate(-30.615 -158.609)"/>
            </g>
        </g>
        <g>
            <g>
                <path d="M243.414 62.785a3.643 3.643 0 0 0-2.414-.892l-.5.01-.01.5a3.077 3.077 0 0 0 3.282 3.308h.025l.5-.01.01-.5a3.644 3.644 0 0 0-.893-2.416zm-1.294 1.295a2.126 2.126 0 0 1-.52-1.08 1.827 1.827 0 0 1 1.6 1.6 2.129 2.129 0 0 1-1.08-.52z" transform="translate(16.667 4.315) translate(-240.487 -61.892)"/>
            </g>
        </g>
        <g>
            <g>
                <path d="M139.284 116.389l-.01-.5-.5-.01a3.08 3.08 0 0 0-3.308 3.308l.01.5.5.01H136a3.077 3.077 0 0 0 3.282-3.308zm-1.632 1.675a2.127 2.127 0 0 1-1.077.523 1.827 1.827 0 0 1 1.6-1.6 2.131 2.131 0 0 1-.524 1.077z" transform="translate(9.344 8.079) translate(-135.464 -115.877)"/>
            </g>
        </g>
        <g>
            <g>
                <path d="M112.366 219l-.01-.5-.5-.01a4.2 4.2 0 0 0-4.522 4.522l.01.5.5.01h.035a4.2 4.2 0 0 0 4.487-4.522zm-1.957 2.566a3.525 3.525 0 0 1-1.99.868 3.527 3.527 0 0 1 .868-1.99 2.83 2.83 0 0 1 1.007-.625l-.816.816.74.74.816-.816a2.83 2.83 0 0 1-.624 1.005z" transform="translate(7.383 15.234) translate(-107.332 -218.486)"/>
            </g>
        </g>
        <g>
            <g>
                <path d="M362.053 33.285l-.01-.5-.5-.01a7.934 7.934 0 0 0-5.247 1.923 7.934 7.934 0 0 0-1.923 5.247l.01.5.5.01h.056a7.878 7.878 0 0 0 5.191-1.923 7.934 7.934 0 0 0 1.923-5.247zm-2.662 4.507a5.921 5.921 0 0 1-3.092 1.475l2.987-2.987-.74-.74-2.989 2.989a5.911 5.911 0 0 1 1.478-3.1 6.533 6.533 0 0 1 3.95-1.591 6.507 6.507 0 0 1-1.594 3.955z" transform="translate(24.607 2.285) translate(-354.371 -32.773)"/>
            </g>
        </g>
        <g>
            <g>
                <path d="M234.148 340.942a6.519 6.519 0 0 0-4.312-1.583l-.5.01-.01.5a5.462 5.462 0 0 0 5.849 5.9h.046l.5-.01.01-.5a6.517 6.517 0 0 0-1.583-4.317zm-.664 3.524a4.259 4.259 0 0 1-1.838-1.022 5.09 5.09 0 0 1-1.246-3.009 5.065 5.065 0 0 1 3.008 1.247 4.622 4.622 0 0 1 1.148 2.36l-1.74-1.655-.721.758z" transform="translate(15.888 23.661) translate(-229.323 -339.358)"/>
            </g>
        </g>
        <g>
            <g>
                <path d="M357.016 347.469l-.01-.5-.5-.01c-.2 0-5.04-.069-8.051 2.942s-2.947 7.847-2.942 8.051l.01.5.5.01h.087c.7 0 5.136-.115 7.964-2.943 3.011-3.01 2.946-7.846 2.942-8.05zm-3.682 7.312c-2.147 2.147-5.478 2.547-6.762 2.62.073-1.283.473-4.615 2.62-6.762a10.236 10.236 0 0 1 5.9-2.542l-2.981 2.857.724.755 3.051-2.924a10.3 10.3 0 0 1-2.552 5.996z" transform="translate(23.989 24.191) translate(-345.509 -346.956)"/>
            </g>
        </g>
        <g>
            <g>
                <path d="M8.329 2.331C5.943-.054 2.121 0 1.959 0l-.5.01-.01.5c0 .162-.055 3.984 2.331 6.369 2.24 2.24 5.749 2.331 6.3 2.331h.069l.5-.01.01-.5c.004-.161.055-3.983-2.33-6.369zm.5 5.735a7.7 7.7 0 0 1-4.311-1.924 7.61 7.61 0 0 1-1.9-4.159l1.46 1.46.74-.74-1.555-1.556a7.727 7.727 0 0 1 4.326 1.924 7.618 7.618 0 0 1 1.9 4.172L5.668 3.422l-.74.74z" transform="translate(-1.447)"/>
            </g>
        </g>
        <g>
            <g>
                <path d="M0 0H1.017V1.046H0z" transform="translate(28.572 29.491) rotate(-45 .868 .36)"/>
            </g>
        </g>
        <g>
            <g>
                <path d="M0 0H1.046V1.046H0z" transform="translate(6.337 11.9)"/>
            </g>
        </g>
        <g>
            <g>
                <path d="M0 0H1.046V1.046H0z" transform="translate(1.237 7.977)"/>
            </g>
        </g>
        <g>
            <g>
                <path d="M0 0H1.046V1.046H0z" transform="translate(15.359 11.507)"/>
            </g>
        </g>
        <g>
            <g>
                <path d="M0 0H1.046V1.046H0z" transform="translate(4.898 21.838)"/>
            </g>
        </g>
        <g>
            <g>
                <path d="M0 0H1.046V1.046H0z" transform="translate(3.721 20.53)"/>
            </g>
        </g>
        <g>
            <g>
                <path d="M0 0H1.046V1.046H0z" transform="translate(11.567 30.86)"/>
            </g>
        </g>
        <g>
            <g>
                <path d="M0 0H1.046V1.046H0z" transform="translate(13.005 24.714)"/>
            </g>
        </g>
        <g>
            <g>
                <path d="M0 0H1.046V1.046H0z" transform="translate(22.42 15.953)"/>
            </g>
        </g>
        <g>
            <g>
                <path d="M0 0H1.046V1.046H0z" transform="translate(20.851 3.008)"/>
            </g>
        </g>
        <g>
            <g>
                <path d="M0 0H1.046V1.046H0z" transform="translate(14.183 5.754)"/>
            </g>
        </g>
        <g>
            <g>
                <path d="M0 0H1.046V1.046H0z" transform="translate(32.619 7.977)"/>
            </g>
        </g>
        <g>
            <g>
                <path d="M0 0H1.046V1.046H0z" transform="translate(31.312 9.415)"/>
            </g>
        </g>
        <g>
            <g>
                <path d="M0 0H1.046V1.046H0z" transform="translate(33.143 18.176)"/>
            </g>
        </g>
    </g>
</svg>
