<svg xmlns="http://www.w3.org/2000/svg" width="31.419" height="31.419" viewBox="0 0 31.419 31.419">
    <g>
        <g>
            <path d="M26.264 192.225a5.155 5.155 0 0 0 0-10.309h-9.143a.614.614 0 1 0 0 1.227h7.284v3.11a12.472 12.472 0 0 1-4.148 9.291H8.405l.055-.052a4.277 4.277 0 0 0 1.258-2.524 2.952 2.952 0 0 0-.8-2.47 3.316 3.316 0 0 0-3.967-.317 12.418 12.418 0 0 1-.635-3.928v-3.11H11.6a.614.614 0 1 0 0-1.227H3.7a.614.614 0 0 0-.614.614v3.723a13.64 13.64 0 0 0 .833 4.7 4.276 4.276 0 0 0-1.256 2.521 3.041 3.041 0 0 0 .471 2.067H.614a.614.614 0 0 0-.614.614 3.563 3.563 0 0 0 3.559 3.559h1.9a3.074 3.074 0 0 0 3.007 2.455H20.25a3.074 3.074 0 0 0 3.007-2.455h1.9a3.563 3.563 0 0 0 3.559-3.559.614.614 0 0 0-.614-.614H22a13.7 13.7 0 0 0 2.26-3.319h2zm-17.764.608a3.047 3.047 0 0 1-.906 1.791 3.047 3.047 0 0 1-1.791.906 2.114 2.114 0 0 1-.654-.025 1.61 1.61 0 0 1 1.2-1.688 2.836 2.836 0 0 0 2.018-1.987 1.949 1.949 0 0 1 .133 1.003zm-4.615.778a3.047 3.047 0 0 1 .906-1.791 2.978 2.978 0 0 1 2.042-.924 1.991 1.991 0 0 1 .4.04 1.61 1.61 0 0 1-1.2 1.691 2.836 2.836 0 0 0-2.018 1.988 1.95 1.95 0 0 1-.132-1.003zm21.275 4.879H22.7a.614.614 0 0 0-.614.614 1.843 1.843 0 0 1-1.841 1.841H8.468a1.843 1.843 0 0 1-1.841-1.845.614.614 0 0 0-.614-.614H3.559a2.336 2.336 0 0 1-2.25-1.718h26.1a2.336 2.336 0 0 1-2.249 1.722zm1.1-15.346a3.927 3.927 0 0 1 0 7.855h-1.474a13.7 13.7 0 0 0 .451-1.473h1.027a2.455 2.455 0 1 0 0-4.909h-.632v-1.473zm-.632 2.7h.632a1.227 1.227 0 0 1 0 2.455h-.786a13.733 13.733 0 0 0 .154-2.045z" transform="translate(0 -170.753)"/>
            <path d="M295.145 43.493a.614.614 0 1 0 .868.868 2.782 2.782 0 0 0 0-3.93 1.552 1.552 0 0 1 0-2.195.614.614 0 0 0-.868-.868 2.779 2.779 0 0 0 0 3.93 1.554 1.554 0 0 1 0 2.195z" transform="translate(-276.269 -34.906)"/>
            <path d="M133.828 43.492a.614.614 0 1 0 .868.868 2.782 2.782 0 0 0 0-3.93 1.554 1.554 0 0 1 0-2.195.614.614 0 0 0-.868-.868 2.782 2.782 0 0 0 0 3.93 1.554 1.554 0 0 1 0 2.195z" transform="translate(-124.853 -34.905)"/>
            <path d="M210.863 8.587a.614.614 0 1 0 .868.868 3.59 3.59 0 0 0 0-5.071 2.359 2.359 0 0 1 0-3.336.614.614 0 0 0-.868-.868 3.586 3.586 0 0 0 0 5.071 2.361 2.361 0 0 1 0 3.336z" transform="translate(-196.938)"/>
            <path d="M224.614 181.92a.613.613 0 1 0 .434.179.618.618 0 0 0-.434-.179z" transform="translate(-210.254 -170.757)"/>
        </g>
    </g>
</svg>
