<svg xmlns="http://www.w3.org/2000/svg" width="31.03" height="31.031" viewBox="0 0 31.03 31.031">
    <path d="M8.877 5.662c1.243.788 3.092 1.6 3.907 2.774-1 1.335-1.267 2.265-.781 2.76l5.576 5.576C16 18.35 17.836 16.513 8.348 26a2.959 2.959 0 1 0 4.182 4.182l9.23-9.23 5.576 5.576c.669.66 2.013-.216 2.762-.781 1.175.816 1.983 2.663 2.771 3.906a3.02 3.02 0 1 0 4.688-3.75c-.887-.889-3.4-1.715-4.427-3.188.747-.992 1.374-2.161.778-2.764l-3.769-3.769a24.362 24.362 0 0 0 3.06-1.429 14.97 14.97 0 0 0 2.981-2.187A7.225 7.225 0 1 0 25.962 2.349a17.943 17.943 0 0 0-3.626 6.033l-3.763-3.765c-.491-.482-1.421-.213-2.757.785-1.178-.815-1.987-2.666-2.773-3.908a3.02 3.02 0 1 0-4.166 4.168zm11.209 10.906a1.923 1.923 0 0 1 1.307 3.288l-.456.462a3.67 3.67 0 0 0-2.731-2.718c.6-.6.409-.4.467-.465a1.924 1.924 0 0 1 1.413-.567zm15.708-13.1a3.212 3.212 0 0 1-.02 2.264c-1.489 4.893-8.753 8.524-13.3 11.079-.036-.052-.423.4 13.318-13.343zm-.732-.728L21.74 16.065c-.031-.022-.06-.045-.092-.066 2.214-3.755 4.44-7.941 7.233-10.731 2.149-2.146 4.8-3.185 6.182-2.531zM13.469 27.785c-.723.723-2.61-.236-2.935-1.741a1.047 1.047 0 0 1 .21-.981L17 18.809a.871.871 0 0 1 .648-.246c1.427 0 2.891 1.947 2.075 2.969zm-4.407 1.683a1.939 1.939 0 0 1 .016-2.739l.452-.451A3.735 3.735 0 0 0 12.249 29l-.448.448a1.94 1.94 0 0 1-2.739.02zm27.766-2.833a1.988 1.988 0 1 1-3.087 2.465c-.752-1.187-1.544-2.994-2.819-4.023a16.685 16.685 0 0 0 1.537-1.537c1.274 1.581 3.679 2.406 4.369 3.1zm-3.712-6.015a7.628 7.628 0 0 1-2.132 2.98A7.71 7.71 0 0 1 28 25.734l-5.55-5.552a2.952 2.952 0 0 0 .522-1.446c1.864-.648 4.039-1.357 6.117-2.143zm2.333-8.781c-2.606 2.624-7.567 4.122-12.151 5.691 4.88-2.742 12.632-6.69 13.635-12.223a6.228 6.228 0 0 1-1.484 6.532zM24.667 5.851a14.06 14.06 0 0 1 2.026-2.77 6.23 6.23 0 0 1 6.53-1.481c-5.429.973-9.25 8.425-12.067 13.2l1.859-5.288a22.032 22.032 0 0 1 1.653-3.663zm-2.724 3.6l-2.143 6.1a2.943 2.943 0 0 0-1.457.53L12.8 10.53a4.555 4.555 0 0 1 1.015-1.747 15.725 15.725 0 0 1 2.349-2.35 4.573 4.573 0 0 1 1.749-1.017zM9.084 1.7a1.989 1.989 0 0 1 3.087.346c.753 1.187 1.549 3 2.822 4.027a15.452 15.452 0 0 0-1.536 1.536c-1.028-1.273-2.84-2.068-4.027-2.819a1.99 1.99 0 0 1-.346-3.09z" transform="translate(-7.407 -.092)"/>
</svg>
