<svg xmlns="http://www.w3.org/2000/svg" width="24.964" height="27.019" viewBox="0 0 24.964 27.019">
    <g>
        <path d="M42.842 8.641a2.3 2.3 0 0 0-.217-4.593h-.082a2.507 2.507 0 0 0-.7-1.37 2.689 2.689 0 0 0-1.987-.705h-.178c-2.44.044-2.948.053-6.972-2.01a7.891 7.891 0 0 0-7.655.048 5.336 5.336 0 0 0-2.64 4.033h-.153a2.3 2.3 0 0 0-.217 4.593l-.492 11.221c-1.233 2.168-1.536 3.826-.9 4.927a2.79 2.79 0 0 0 2.661 1.231h18.266a2.79 2.79 0 0 0 2.661-1.231c.635-1.1.332-2.76-.9-4.928zM21.015 6.35a1.248 1.248 0 0 1 1.246-1.25h8.076a.527.527 0 0 0 0-1.054h-6.861A4.321 4.321 0 0 1 25.6.915 6.835 6.835 0 0 1 32.228.9c4.26 2.184 4.94 2.172 7.472 2.126h.178a1.649 1.649 0 0 1 1.229.4 1.411 1.411 0 0 1 .354.618h-6.912a.527.527 0 0 0 0 1.054h8.076a1.247 1.247 0 0 1 0 2.494H22.261a1.248 1.248 0 0 1-1.246-1.242zm22.308 17.913a1.959 1.959 0 0 1-1.747.7H23.312a1.96 1.96 0 0 1-1.747-.7c-.432-.749-.09-2.165.964-3.986a.526.526 0 0 0 .07-.241l.5-11.384h18.688l.5 11.384a.527.527 0 0 0 .07.241c1.055 1.823 1.398 3.237.966 3.986z" transform="translate(-19.961 .998)"/>
        <path d="M191.346 209.9a1.549 1.549 0 0 0-1.618-.252c.008-.106.013-.213.013-.321 0-1.557-.8-2.777-1.823-2.777s-1.822 1.22-1.822 2.777c0 .108 0 .215.013.321a1.549 1.549 0 0 0-1.618.252c-.538.538-.468 1.484.141 2.476a1.178 1.178 0 0 0-.141.12c-.723.724-.318 2.221.944 3.484a4.723 4.723 0 0 0 1.872 1.2l.084.031v1.394a.527.527 0 0 0 1.054 0v-1.394c.029-.009.057-.02.085-.031a4.721 4.721 0 0 0 1.873-1.2c1.261-1.262 1.667-2.76.943-3.483a1.159 1.159 0 0 0-.141-.12c.609-.99.679-1.935.141-2.477zm-.746.745c.132.132.054.754-.525 1.516a2.687 2.687 0 0 0-.446.114 4.326 4.326 0 0 0-1.184.657v-1.167c.052-.057.106-.115.165-.175a4.576 4.576 0 0 1 .671-.556 3.051 3.051 0 0 1 .691-.357c.337-.113.562-.095.628-.028zm-2.683-3.041c.306 0 .769.687.769 1.723a3.067 3.067 0 0 1-.139.933 5.737 5.737 0 0 0-.63.531 5.688 5.688 0 0 0-.63-.531 3.066 3.066 0 0 1-.139-.933c.002-1.032.464-1.72.77-1.72zm-2.681 3.041c.066-.066.291-.085.627.031a3.047 3.047 0 0 1 .683.351h.007a4.56 4.56 0 0 1 .67.554q.086.087.167.177v1.167a4.318 4.318 0 0 0-1.183-.656 2.686 2.686 0 0 0-.446-.114c-.578-.755-.661-1.374-.525-1.506zm.943 4.589c-.953-.954-1.1-1.841-.943-1.993.067-.067.291-.085.627.031a3.829 3.829 0 0 1 1.363.914c.056.056.111.114.164.174v1.729a4.027 4.027 0 0 1-1.21-.852zm3.478 0a4.027 4.027 0 0 1-1.213.855v-1.73q.079-.087.165-.174a3.83 3.83 0 0 1 1.363-.914c.336-.116.561-.1.627-.031.153.16.011 1.043-.941 1.997z" transform="translate(-19.961 .998) translate(-155.486 -196.577)"/>
        <path d="M246.592 95.5h.011a.527.527 0 0 0 0-1.054h-.011a.527.527 0 0 0 0 1.054z" transform="translate(-19.961 .998) translate(-214.149 -90.395)"/>
    </g>
</svg>
