<svg xmlns="http://www.w3.org/2000/svg" width="36.54" height="36.54" viewBox="0 0 36.54 36.54">
    <path d="M34.16 22.64a5.84 5.84 0 0 0-1.96-2.083 3.212 3.212 0 0 0-2.329-3.347c-.316-1.769-2.189-2.57-3.962-2.2a4.118 4.118 0 0 0-3.817-.7 10.913 10.913 0 0 0-1.425-2.066.535.535 0 0 0-.795.717 9.918 9.918 0 0 1 1.253 1.814 2.794 2.794 0 0 0-.294.237c-1.761-.362-3.639.417-3.956 2.2a3.2 3.2 0 0 0-1.926 1.514 5.158 5.158 0 0 1-.686-.56 2.77 2.77 0 0 1-.641-2.893 2.984 2.984 0 0 1 1.649-1.648.535.535 0 0 0-.364-1.007 4.026 4.026 0 0 0-2.291 2.289 3.845 3.845 0 0 0 .891 4.015 6.772 6.772 0 0 0 1.073.844 3.15 3.15 0 0 0-.036.795c-.116.075-.228.155-.336.238a8.264 8.264 0 0 1-1.458-1.12 4.895 4.895 0 0 1-1.14-5.137.535.535 0 0 0-.2-.626l-8.9-5.994a3.85 3.85 0 1 1 5.415-5.407l5.992 8.892a.535.535 0 0 0 .626.2 4.918 4.918 0 0 1 3.8.191.535.535 0 0 0 .464-.965 5.991 5.991 0 0 0-4.224-.362c-.019-.029-5.785-8.587-5.807-8.614a4.919 4.919 0 1 0-6.868 6.951l8.565 5.771c-.036.128-.067.258-.1.389-1.684-.242-3.4.542-3.7 2.244a3.214 3.214 0 0 0-2.333 3.345 5.838 5.838 0 0 0-1.96 2.083 2.676 2.676 0 0 0 .3 5.336h1.113a23.129 23.129 0 0 0 2.846 3.889.535.535 0 0 0 .793-.719 22.06 22.06 0 0 1-2.387-3.17h7.395a.535.535 0 1 0 0-1.07H2.676a1.606 1.606 0 0 1 0-3.212h31.187a1.613 1.613 0 0 1 1.606 1.6 1.653 1.653 0 0 1-1.654 1.608H24.1a.535.535 0 1 0 0 1.07h7.4a21.891 21.891 0 0 1-5.262 5.828 8.079 8.079 0 0 1-4.906 1.673h-6.123A8.077 8.077 0 0 1 10.3 33.8c-.479-.37-.949-.764-1.4-1.171a.535.535 0 1 0-.722.791c.468.427.961.84 1.463 1.228a9.153 9.153 0 0 0 5.56 1.9h6.123a9.155 9.155 0 0 0 5.56-1.9 22.965 22.965 0 0 0 5.855-6.668h1.069a2.676 2.676 0 0 0 .345-5.335zM9.049 21.553a.535.535 0 0 0-.535.535.535.535 0 0 1-1.071 0 1.608 1.608 0 0 1 1.606-1.606.535.535 0 1 1 0 1.07zm3.525 1.07H9.491l.024-.069a1.606 1.606 0 0 0-.466-3.142 2.679 2.679 0 0 0-2.676 2.676 1.6 1.6 0 0 0 .092.535H3.674a4.172 4.172 0 0 1 1.5-1.313.535.535 0 0 0 .271-.585 2.146 2.146 0 0 1 1.806-2.549.535.535 0 0 0 .449-.512c.038-1.286 1.32-1.825 2.547-1.636a5.929 5.929 0 0 0 1.743 4.407 8.933 8.933 0 0 0 1.4 1.115 7.931 7.931 0 0 0-.821 1.072zm1.315 0a5.032 5.032 0 0 1 1.488-1.313.535.535 0 0 0 .271-.585 2.148 2.148 0 0 1 1.806-2.549.535.535 0 0 0 .449-.512c.044-1.463 1.672-1.918 2.955-1.547a.535.535 0 0 0 .564-.175 2.913 2.913 0 0 1 3.9 0 .535.535 0 0 0 .566.175c1.277-.375 2.916.085 2.958 1.546a.535.535 0 0 0 .45.513 2.142 2.142 0 0 1 1.8 2.544.535.535 0 0 0 .269.59 4.169 4.169 0 0 1 1.5 1.312H13.889z"/>
    <path d="M265.344 246.11a1.606 1.606 0 0 0-3.142.466 2.679 2.679 0 0 0 2.676 2.676 1.606 1.606 0 0 0 .466-3.142zm-.466 2.072a1.608 1.608 0 0 1-1.606-1.606.535.535 0 0 1 1.07 0 .535.535 0 0 0 .535.535.535.535 0 0 1 0 1.071z" transform="translate(-243.49 -227.487)"/>
    <path d="M342.38 240.344a1.608 1.608 0 0 0-2.271 0 2.679 2.679 0 0 0 0 3.785 2.5 2.5 0 0 0 2.271-3.785zm-.757 2.271a.535.535 0 1 1-.757.757 1.607 1.607 0 0 1 0-2.271.535.535 0 0 1 .757.757.535.535 0 0 0 0 .757z" transform="translate(-315.11 -222.756)"/>
    <path d="M277.808 99.252a2.679 2.679 0 0 0 2.676-2.676 1.606 1.606 0 0 0-3.142-.466 1.606 1.606 0 0 0 .466 3.142zm0-2.141a.535.535 0 0 0 .535-.535.535.535 0 0 1 1.071 0 1.608 1.608 0 0 1-1.606 1.606.535.535 0 0 1 0-1.07z" transform="translate(-256.49 -88.192)"/>
    <path d="M389.322 134.221a2.658 2.658 0 0 0 .783 1.893 1.606 1.606 0 0 0 2.552-1.893 1.606 1.606 0 0 0-2.552-1.892 2.658 2.658 0 0 0-.783 1.892zm1.54-1.135a.535.535 0 0 1 .757.757.535.535 0 0 0 0 .757.535.535 0 1 1-.757.757 1.608 1.608 0 0 1 0-2.271z" transform="translate(-361.537 -122.448)"/>
    <path d="M347.359 35.221a2.207 2.207 0 1 0-3.785 0 2.679 2.679 0 0 0 3.785 0zm-3.028-1.514a.536.536 0 0 1 .757 0 .535.535 0 0 0 .757 0 .535.535 0 0 1 .757.757 1.607 1.607 0 0 1-2.271 0 .536.536 0 0 1 0-.757z" transform="translate(-318.619 -30.163)"/>
    <path d="M187.121 418.392v-.856a.535.535 0 1 0-1.07 0v.856a.535.535 0 1 0 1.07 0z" transform="translate(-172.773 -387.24)"/>
    <path d="M312.02 418.392v-.856a.535.535 0 0 0-1.07 0v.856a.535.535 0 1 0 1.07 0z" transform="translate(-288.758 -387.24)"/>
    <path d="M235.324 429.529a.535.535 0 0 0-.807-.7 1.022 1.022 0 0 1-1.543 0 .535.535 0 0 0-.807.7 2.093 2.093 0 0 0 3.157 0z" transform="translate(-215.476 -398.051)"/>
</svg>
