<svg xmlns="http://www.w3.org/2000/svg" width="43.876" height="50.893" viewBox="0 0 43.876 50.893">
    <defs>
        <style>
            .cls-10,.cls-13,.cls-5,.cls-9{stroke:#000;stroke-width:.7px}.cls-5{fill:#559b2d}.cls-9{fill:#f2f2f2}.cls-10{fill:#fce797}.cls-13{fill:#976947}
        </style>
    </defs>
    <g id="Group_196" transform="translate(-47.65 -15.275)">
        <path id="Path_105" fill="#d5883e" stroke="#000" stroke-width="0.7px" d="M110.194 304l-2.127 17.021a3.321 3.321 0 0 1-3.3 2.906H77.423a3.321 3.321 0 0 1-3.3-2.906L72 304" transform="translate(-21.509 -258.109)"/>
        <path id="Path_106" fill="#f3a748" stroke="#000" stroke-width="0.7px" d="M76.816 342.53a3.321 3.321 0 0 0 3.3 2.906h27.344a3.3 3.3 0 0 0 1.787-.529V328H75z" transform="translate(-24.198 -279.618)"/>
        <path id="Path_107" fill="#f0ae42" stroke="#000" stroke-width="0.7px" d="M50.491 256h38.194a2.491 2.491 0 0 1 2.491 2.491 2.491 2.491 0 0 1-2.491 2.491H50.491A2.491 2.491 0 0 1 48 258.491 2.491 2.491 0 0 1 50.491 256z" transform="translate(0 -215.091)"/>
        <path id="Path_108" fill="#f9d266" stroke="#000" stroke-width="0.7px" d="M48.153 272a2.46 2.46 0 0 0-.153.83 2.491 2.491 0 0 0 2.491 2.491h38.194V272z" transform="translate(0 -229.43)"/>
        <path id="Path_109" d="M261.944 18.888L260.982 16l-1.661 1.661L256 16l1.681 4.2a6.675 6.675 0 0 1 3.583.555 5.735 5.735 0 0 1 .681-1.868z" class="cls-5" transform="translate(-186.412)"/>
        <path id="Path_110" fill="#b52f28" stroke="#000" stroke-width="0.7px" d="M225.415 56.575A6.642 6.642 0 0 0 216 62.613a5.592 5.592 0 0 1 2.33 3.321h.161a4.134 4.134 0 0 1 2.906 1.191 4.134 4.134 0 0 1 2.906-1.191l1.061-9.017c.013-.117.03-.229.051-.342z" transform="translate(-150.564 -35.819)"/>
        <path id="Path_111" fill="#c18e59" stroke="#000" stroke-width="0.7px" d="M305.133 36.758a4.1 4.1 0 0 0-5.269-3.98A4.143 4.143 0 0 0 296 30.115l1.061-9.017a5.772 5.772 0 1 1 11.345 2.021z" transform="translate(-222.261)"/>
        <path id="Path_112" d="M237.472 162.786h19.359a4.152 4.152 0 0 0-4.152-4.152 4.1 4.1 0 0 0-5.269-3.98 4.137 4.137 0 0 0-6.77-1.47 4.134 4.134 0 0 0-2.906-1.191h-.262z" class="cls-5" transform="translate(-169.807 -121.877)"/>
        <path id="Path_113" fill="#c8cded" stroke="#000" stroke-width="0.7px" d="M91.624 64v1.157a5.594 5.594 0 0 0 2.491 4.655 5.594 5.594 0 0 1 2.491 4.655v6.97h-.1a1.76 1.76 0 0 0-1.245.516l-1.975 1.975H80v-9.46a5.594 5.594 0 0 1 2.491-4.655 5.594 5.594 0 0 0 2.491-4.655V64z" transform="translate(-28.679 -43.018)"/>
        <path id="Path_114" d="M161.661 336a1.661 1.661 0 0 1 1.661 1.661v9.964a1.661 1.661 0 1 1-3.321 0v-9.964z" class="cls-9" transform="translate(-100.376 -286.788)"/>
        <path id="Path_115" d="M321.661 336a1.661 1.661 0 0 0-1.661 1.661v9.964a1.661 1.661 0 1 0 3.321 0v-9.964z" class="cls-9" transform="translate(-243.77 -286.788)"/>
        <path id="Path_116" d="M69.072 235.007l-18.065 18.065a1.761 1.761 0 0 1-2.491-2.491l18.066-18.066a1.761 1.761 0 0 1 2.491 2.491z" class="cls-10" transform="translate(0 -193.582)"/>
        <path id="Path_117" d="M256.516 235.007l18.066 18.066a1.761 1.761 0 0 0 2.491-2.491l-18.066-18.066a1.761 1.761 0 0 0-2.491 2.491z" class="cls-10" transform="translate(-186.412 -193.582)"/>
        <path id="Path_118" d="M241.661 336a1.661 1.661 0 0 1 1.661 1.661v9.964a1.661 1.661 0 0 1-1.661 1.661 1.661 1.661 0 0 1-1.661-1.662v-9.964a1.661 1.661 0 0 1 1.661-1.66z" class="cls-9" transform="translate(-172.073 -286.788)"/>
        <rect id="Rectangle_31" width="10" height="4" fill="#3b5892" stroke="#000" stroke-width="0.7px" rx="2" transform="translate(54.588 16.909)"/>
        <path id="Path_119" fill="#e2e7f6" stroke="#000" stroke-width="0.7px" d="M112 184.3V176h9.964v8.3" transform="translate(-57.358 -143.394)"/>
        <path id="Path_120" d="M112 200h7.473v5.812H112z" class="cls-9" transform="translate(-57.358 -164.903)"/>
        <path id="Path_121" d="M334.525 65.871l.272-1.637 4.98.828-.277 1.638z" class="cls-13" transform="translate(-256.787 -43.228)"/>
        <path id="Path_122" d="M326.517 105.855l.272-1.637 4.98.828-.272 1.637z" class="cls-13" transform="translate(-249.61 -79.062)"/>
        <path id="Path_123" fill="#d23f34" stroke="#000" stroke-width="0.7px" d="M216 80.567a5.592 5.592 0 0 1 2.33 3.321h.161a4.134 4.134 0 0 1 2.906 1.191 4.142 4.142 0 0 1 1.727-1V76h-5.3A6.612 6.612 0 0 0 216 80.567z" transform="translate(-150.564 -53.773)"/>
    </g>
</svg>
