<svg xmlns="http://www.w3.org/2000/svg" width="17.932" height="29.314" viewBox="0 0 17.932 29.314">
    <g>
        <path d="M116.488 7.7l-1.9-2.529a.522.522 0 0 1-.1-.311V3.7h.045a.9.9 0 0 0 .9-.9V1.377A1.38 1.38 0 0 0 114.058 0h-8.626a.429.429 0 0 0 0 .859h8.626a.52.52 0 0 1 .519.519V2.8a.045.045 0 0 1-.045.045h-1.942v-.519a.429.429 0 1 0-.859 0v.519H108.8v-.52a.429.429 0 1 0-.859 0v.519H105v-.519a.429.429 0 1 0-.859 0v.519H102.2a.045.045 0 0 1-.045-.045V1.377a.52.52 0 0 1 .519-.519h1.038a.429.429 0 0 0 0-.859h-1.038a1.38 1.38 0 0 0-1.374 1.378V2.8a.9.9 0 0 0 .9.9h.045v1.155a.522.522 0 0 1-.1.311l-1.9 2.529a4.25 4.25 0 0 0-.845 2.535v16.757a2.329 2.329 0 0 0 2.326 2.326h13.279a2.329 2.329 0 0 0 2.326-2.326V10.23a4.251 4.251 0 0 0-.845-2.534zm-15.556.515l1.9-2.529a1.386 1.386 0 0 0 .276-.827V3.7h10.523v1.155a1.387 1.387 0 0 0 .276.827l1.9 2.529a3.386 3.386 0 0 1 .673 2.019v3.523h-1.038v-3.365a.9.9 0 0 0-.9-.9H102.2a.9.9 0 0 0-.9.9v3.365h-1.04V10.23a3.386 3.386 0 0 1 .673-2.019zm15.541 14.078h-4a1.372 1.372 0 0 0-.848.292 5.261 5.261 0 0 1-6.517 0 1.372 1.372 0 0 0-.848-.292h-4v-7.682h4a1.372 1.372 0 0 0 .848-.292 5.261 5.261 0 0 1 6.517 0 1.372 1.372 0 0 0 .848.292h4zm-1.9-8.537h-2.1a.51.51 0 0 1-.315-.107 6.12 6.12 0 0 0-7.582 0 .51.51 0 0 1-.315.107h-2.1v-3.368a.045.045 0 0 1 .045-.045h12.331a.045.045 0 0 1 .045.045v3.365zm.429 14.7h-13.275a1.469 1.469 0 0 1-1.468-1.468v-3.84h1.041v2.89a1.379 1.379 0 0 0 1.378 1.378h1.038a.429.429 0 1 0 0-.859h-1.038a.52.52 0 0 1-.519-.519v-2.89h2.1a.51.51 0 0 1 .315.107 6.12 6.12 0 0 0 7.582 0 .51.51 0 0 1 .315-.107h2.1v2.89a.52.52 0 0 1-.519.519h-8.626a.429.429 0 1 0 0 .859h8.626a1.379 1.379 0 0 0 1.378-1.378v-2.89h1.038v3.839A1.469 1.469 0 0 1 115 28.455z" transform="translate(-99.401 .001)"/>
        <path d="M202.656 248.991v-.062a.429.429 0 1 0-.859 0v.062c-1.513.119-2.674.862-2.829 1.853a.668.668 0 0 0 .34.686 1.7 1.7 0 0 0 .155.075 1.913 1.913 0 0 0-.038.366 4.431 4.431 0 0 0 2.036 3.8 1.376 1.376 0 0 0 1.528 0 4.431 4.431 0 0 0 2.036-3.8 1.923 1.923 0 0 0-.038-.366 1.715 1.715 0 0 0 .155-.075.668.668 0 0 0 .34-.686c-.155-.992-1.316-1.735-2.829-1.853zm-.429.842a2.573 2.573 0 0 1 2.369 1 2.917 2.917 0 0 1-2.18-.4.43.43 0 0 0-.378 0 2.917 2.917 0 0 1-2.18.4 2.573 2.573 0 0 1 2.369-1zm1.943 2.181a3.567 3.567 0 0 1-1.655 3.039.526.526 0 0 1-.577 0 3.567 3.567 0 0 1-1.655-3.037 2.423 2.423 0 0 1 .023-.245 4.467 4.467 0 0 0 1.92-.47 4.534 4.534 0 0 0 1.869.47h.051a2.434 2.434 0 0 1 .023.243z" transform="translate(-99.401 .001) translate(-93.859 -234.273)"/>
        <path d="M232.6 314.767h-.237a.429.429 0 1 0 0 .859h.237a.429.429 0 1 0 0-.859z" transform="translate(-99.401 .001) translate(-124.944 -296.746)"/>
        <path d="M261.592 323.05h-.237a.429.429 0 1 0 0 .859h.237a.429.429 0 1 0 0-.859z" transform="translate(-99.401 .001) translate(-152.276 -304.555)"/>
        <path d="M133.911 298.2a1.378 1.378 0 1 0 1.378 1.378 1.379 1.379 0 0 0-1.378-1.378zm0 1.9a.519.519 0 1 1 .519-.519.52.52 0 0 1-.519.519z" transform="translate(-99.401 .001) translate(-31.235 -281.128)"/>
        <path d="M331.333 299.578a1.378 1.378 0 1 0 1.378-1.378 1.379 1.379 0 0 0-1.378 1.378zm1.9 0a.519.519 0 1 1-.519-.519.52.52 0 0 1 .516.519z" transform="translate(-99.401 .001) translate(-218.653 -281.128)"/>
    </g>
</svg>
