<svg xmlns="http://www.w3.org/2000/svg" width="14.437" height="20.368" viewBox="0 0 14.437 20.368">
    <defs>
        <style>
            .cls-1{fill:none;stroke:#3d3d3d}
        </style>
    </defs>
    <g id="Group_195" transform="translate(-31.28 -3.83)">
        <path id="Path_50" d="M38.465 17.665c-1.158 0-2.318-.039-3.474.009a3.029 3.029 0 0 1-3.07-2.256 5.28 5.28 0 0 1 .072-2.753c.4-1.759.8-3.518 1.181-5.28a5.317 5.317 0 0 1 4.946-3.95 5.393 5.393 0 0 1 5.567 3.586c.434 1.577.742 3.185 1.093 4.781a19.942 19.942 0 0 1 .412 2.157 3.446 3.446 0 0 1-.89 2.792 2.7 2.7 0 0 1-2.092.915c-1.249-.005-2.497-.001-3.745-.001z" class="cls-1" transform="translate(0 .907)"/>
        <path id="Path_51" d="M87.242 181.681a1.745 1.745 0 0 1 1.718-1.774 1.766 1.766 0 0 1 1.745 1.755A1.742 1.742 0 0 1 89 183.4a1.724 1.724 0 0 1-1.758-1.719z" class="cls-1" transform="translate(-50.468 -159.704)"/>
    </g>
</svg>
