<svg xmlns="http://www.w3.org/2000/svg" width="23" height="22.212" viewBox="0 0 23 22.212">
    <g>
        <g>
            <path d="M234.655 141.272a.449.449 0 0 0 .444.455h.006a.449.449 0 0 0 .449-.444 6.233 6.233 0 0 0-2.107-4.633.449.449 0 0 0-.636.634 5.328 5.328 0 0 1 1.845 3.988z" transform="translate(0 -8.766) translate(0 8.766) translate(-222.226 -130.78)"/>
            <path d="M21.2 14.07a4.441 4.441 0 0 0-3.572-.458 12.767 12.767 0 0 0-3.577 1.482q-.089-.141-.183-.278a17.336 17.336 0 0 0-5.555-4.7C5.56 8.623 3.236 8.36 1.766 9.372S-.284 12.65.129 15.751a17.345 17.345 0 0 0 2.414 6.865 7.638 7.638 0 0 0 4.85 3.2c.086.016.172.03.259.042a6.728 6.728 0 0 0 2.7 3.952 6.639 6.639 0 0 0 3.791 1.173 7.2 7.2 0 0 0 1.562-.174A7.743 7.743 0 0 0 20.4 27.6a17.727 17.727 0 0 0 2.466-7.015c.422-3.167-.171-5.479-1.67-6.511zM7.556 24.928a6.733 6.733 0 0 1-4.272-2.821 16.374 16.374 0 0 1-2.264-6.475A10.736 10.736 0 0 1 1 12.556a15.788 15.788 0 0 0 .6 2.573 25.037 25.037 0 0 0 2.88 6.151.449.449 0 1 0 .74-.509 24.441 24.441 0 0 1-2.763-5.91c-.737-2.348-.837-4.106-.278-4.669a13.524 13.524 0 0 1 2.977 2.919c1.382 1.6 2.919 3.561 3.916 5.007a.449.449 0 0 0 .74-.51A65.164 65.164 0 0 0 5.553 12.2a25.839 25.839 0 0 0-2.071-2.148c-.122-.109-.24-.209-.354-.3a3.552 3.552 0 0 1 .782-.082 8.777 8.777 0 0 1 3.973 1.23 16.365 16.365 0 0 1 5.244 4.422 6.732 6.732 0 0 1 1.114 5 5.721 5.721 0 0 1-2.347 3.7c-.139 0-.66-.2-1.666-1.182a24.621 24.621 0 0 1-2.891-3.53c-.55-.8-1.209-1.838-1.857-2.927a.449.449 0 0 0-.772.459c.658 1.105 1.329 2.162 1.889 2.977a18.926 18.926 0 0 0 4.322 4.745 5.689 5.689 0 0 1-2.259.462 6.091 6.091 0 0 1-1.1-.1zm14.42-4.465a16.755 16.755 0 0 1-2.316 6.624 6.847 6.847 0 0 1-4.148 2.841 5.776 5.776 0 0 1-6.91-4h.058a6.713 6.713 0 0 0 .98-.072 4.751 4.751 0 0 0 4.483 3.209 5.188 5.188 0 0 0 .943-.088 5.906 5.906 0 0 0 3.754-2.468 10.853 10.853 0 0 0 1.138-2.255.449.449 0 0 0-.839-.322A9.974 9.974 0 0 1 18.082 26a5.071 5.071 0 0 1-3.182 2.094 3.859 3.859 0 0 1-4.377-2.432 6.466 6.466 0 0 0 1.856-.882 6.612 6.612 0 0 0 2.741-4.3 7.364 7.364 0 0 0-.024-2.74 10.962 10.962 0 0 1 2.826-1.308c.839-.231 1.368-.243 1.667-.037s.476.7.559 1.57a9.885 9.885 0 0 1-.065 2.174.449.449 0 1 0 .891.115 10.774 10.774 0 0 0 .068-2.374 2.816 2.816 0 0 0-.944-2.224 2.817 2.817 0 0 0-2.415-.089 11.51 11.51 0 0 0-2.824 1.266 7.807 7.807 0 0 0-.382-.954c2.636-1.541 4.937-1.945 6.2-1.071 1.189.819 1.658 2.879 1.289 5.653z" transform="translate(0 -8.766) translate(0 8.766) translate(0 -8.766)"/>
            <path d="M439.022 297.1a.45.45 0 1 0 .449.451.448.448 0 0 0-.449-.451z" transform="translate(0 -8.766) translate(0 8.766) translate(-418.871 -284.145)"/>
        </g>
    </g>
</svg>
