<svg xmlns="http://www.w3.org/2000/svg" width="16.95" height="30" viewBox="0 0 16.95 30">
    <g transform="translate(-175.76 -8)">
        <path d="M198.847 17.544l-2.266-1.133v-1.637h1.452a.484.484 0 0 0 .484-.484v-1.935a.484.484 0 0 0-.484-.484h-.484V9.694A1.7 1.7 0 0 0 195.855 8H188.6a1.7 1.7 0 0 0-1.7 1.694v2.177h-.484a.484.484 0 0 0-.484.484v1.935a.484.484 0 0 0 .484.484h1.452v1.637l-2.268 1.133a2.887 2.887 0 0 0-1.6 2.6V35.1a2.906 2.906 0 0 0 2.9 2.9h10.645a2.906 2.906 0 0 0 2.9-2.9V20.14a2.887 2.887 0 0 0-1.6-2.6zm-10.976-7.85a.726.726 0 0 1 .726-.726h7.258a.726.726 0 0 1 .726.726v2.177h-1.452v-1.452a.484.484 0 0 0-.968 0v1.452h-1.452v-1.452a.484.484 0 0 0-.968 0v1.452h-1.451v-1.452a.484.484 0 0 0-.968 0v1.452h-1.452zm-.968 4.113v-.968h10.645v.968zm8.71.968v1.452h-6.774v-1.453zm3.871 20.325a1.938 1.938 0 0 1-1.935 1.935H186.9a1.938 1.938 0 0 1-1.935-1.935v-2.423h14.516zm0-3.387h-14.517V23h14.516zm0-9.677h-14.517V20.14a1.925 1.925 0 0 1 1.07-1.731l2.431-1.216h7.513l2.431 1.216a1.925 1.925 0 0 1 1.07 1.731z" transform="translate(-7.741)"/>
        <path d="M227.082 271.708a6.085 6.085 0 0 0-3.335-.931h-.013a5.644 5.644 0 0 0-3.994 1.462 4.357 4.357 0 0 0-.52-.568 3.961 3.961 0 0 0-1.46-.873 1.44 1.44 0 0 0-1.434.189 1.062 1.062 0 0 0-.333.806 2.922 2.922 0 0 0 1.08 1.96c.051.047.1.093.155.136l-.09.08a2.922 2.922 0 0 0-1.08 1.96 1.062 1.062 0 0 0 .333.806 1.44 1.44 0 0 0 1.434.189 3.961 3.961 0 0 0 1.46-.873q.118-.109.225-.221a5.42 5.42 0 0 0 4.222 1.721 6.087 6.087 0 0 0 3.346-.931 2.768 2.768 0 0 0 0-4.911zm-4.006 4.839a3.736 3.736 0 0 1-3.076-1.752.485.485 0 0 0-.405-.286h-.037a.483.483 0 0 0-.407.223 3.17 3.17 0 0 1-.521.608c-.757.694-1.464.8-1.585.684a.152.152 0 0 1-.02-.093 2.088 2.088 0 0 1 .766-1.247 3.46 3.46 0 0 1 .512-.391.484.484 0 0 0-.008-.827 3.446 3.446 0 0 1-.57-.426 2.089 2.089 0 0 1-.766-1.247.158.158 0 0 1 .019-.093c.122-.112.829-.01 1.586.684a2.8 2.8 0 0 1 .678.9.484.484 0 0 0 .859.056 3.957 3.957 0 0 1 2.973-1.556 9.384 9.384 0 0 0 0 4.766zm1.01.025a8.478 8.478 0 0 1 0-4.817c1.941.116 3.519 1.171 3.519 2.408s-1.578 2.293-3.519 2.409z" transform="translate(-37.798 -246.808)"/>
        <circle cx=".484" cy=".484" r=".484" transform="translate(187.387 25.903)"/>
    </g>
</svg>
