<svg xmlns="http://www.w3.org/2000/svg" width="40.58" height="33.197" viewBox="0 0 40.58 33.197">
    <g>
        <path d="M54.551 128.4h-1.387a8.8 8.8 0 0 0-8.717-8.116l.473-1.11a.68.68 0 0 0 .005-.518l-.613-1.518 4.667-10.938a2.029 2.029 0 0 0-3.687-1.695q-.025.054-.046.109l-4.667 10.943-1.512.605a.676.676 0 0 0-.37.363 8.843 8.843 0 0 0-3.493-2.88 2.694 2.694 0 0 0 1.086-2.145v-2.029a.676.676 0 0 0-.676-.676h-2.029a2.688 2.688 0 0 0-2.029.935 2.688 2.688 0 0 0-2.029-.935H27.5a.676.676 0 0 0-.676.676v2.029a2.694 2.694 0 0 0 1.087 2.155 8.8 8.8 0 0 0-5.145 7.99c0 .181.006.349.017.511a8.773 8.773 0 0 0-3.364 6.252h-1.39a2.029 2.029 0 1 0 0 4.058h5.465a4.738 4.738 0 0 0 4.68 4.058h16.232a4.738 4.738 0 0 0 4.68-4.058h5.465a2.029 2.029 0 1 0 0-4.058zm-2.74 0h-1.358a6.087 6.087 0 0 0-12.094 0H37a7.436 7.436 0 0 1 14.812 0zm-4.091 0a3.382 3.382 0 0 0-6.628 0h-1.366a4.728 4.728 0 0 1 9.36 0zm-1.409 0H42.5a2.017 2.017 0 0 1 3.809 0zm-6.479-11.092l1.512-.609a.676.676 0 0 0 .371-.362l4.776-11.2a.676.676 0 0 1 .886-.356.666.666 0 0 1 .36.366.676.676 0 0 1 0 .517l-4.778 11.2a.676.676 0 0 0 0 .519l.612 1.518-.648 1.516a8.7 8.7 0 0 0-2.589.873 8.717 8.717 0 0 0-.787-3.307zm-6.247-7.169h1.353v1.361a1.353 1.353 0 0 1-1.353 1.353h-1.353V111.5a1.353 1.353 0 0 1 1.353-1.357zm-5.411 0h1.353a1.353 1.353 0 0 1 1.353 1.353v1.353h-1.353a1.353 1.353 0 0 1-1.353-1.353zm3.382 4.058a7.448 7.448 0 0 1 7.44 7.44c0 .193-.009.37-.021.541a8.829 8.829 0 0 0-2.685 3.522 8.822 8.822 0 0 0-6.38-5.242 2.026 2.026 0 0 1 3.675 1.179h1.353a3.382 3.382 0 0 0-6.485-1.338c-.093 0-.184-.014-.278-.014a8.783 8.783 0 0 0-1.177.089 4.734 4.734 0 0 1 9.293 1.264 4.813 4.813 0 0 1-.036.6l1.344.162a6.214 6.214 0 0 0 .045-.757 6.083 6.083 0 0 0-12.091-.952 8.734 8.734 0 0 0-1.42.591 7.44 7.44 0 0 1 7.425-7.078zm-3.382 7.44a7.446 7.446 0 0 1 7.405 6.763h-1.358a6.087 6.087 0 0 0-12.094 0h-1.358a7.446 7.446 0 0 1 7.405-6.763zm3.314 6.763a3.382 3.382 0 0 0-6.628 0h-1.366a4.728 4.728 0 0 1 9.36 0zm-1.409 0h-3.81a2.017 2.017 0 0 1 3.809 0zm14.327 6.763H28.174a3.387 3.387 0 0 1-3.314-2.705h22.86a3.387 3.387 0 0 1-3.314 2.709zm10.145-4.058H18.029a.676.676 0 0 1 0-1.353h36.522a.676.676 0 0 1 0 1.353z" transform="translate(-16 -103.323)"/>
        <path d="M377.572 172.7l-1.244-.531-2.557 5.993a5.266 5.266 0 0 0-.041 4.058l1.255-.506a3.971 3.971 0 0 1 .03-3.025z" transform="translate(-16 -103.323) translate(-327.133 -63.025)"/>
        <path d="M414.99 144.552l.477-1.12 1.244.53-.477 1.12z" transform="translate(-16 -103.323) translate(-365.259 -36.718)"/>
    </g>
</svg>
