<svg xmlns="http://www.w3.org/2000/svg" width="45.013" height="33.008" viewBox="0 0 45.013 33.008">
    <g>
        <g>
            <g>
                <path d="M239.345 78.854a.75.75 0 0 0 .671 1.342 3.523 3.523 0 0 0 1.915-2.922 2.673 2.673 0 0 0-.97-2.031c-.368-.368-.53-.548-.53-.97s.163-.6.53-.97a2.673 2.673 0 0 0 .97-2.031 3.52 3.52 0 0 0-1.915-2.921.75.75 0 0 0-.675 1.34 2.045 2.045 0 0 1 1.09 1.581c0 .422-.163.6-.53.97a2.611 2.611 0 0 0 0 4.062c.368.368.53.548.53.97a2.047 2.047 0 0 1-1.086 1.58z" transform="translate(1 -68.272) translate(-1 68.272) translate(-217.924 -68.272)"/>
                <path d="M172.164 125.458a2.042 2.042 0 0 1-1.09 1.581.751.751 0 0 0 .675 1.341 3.523 3.523 0 0 0 1.915-2.922 2.673 2.673 0 0 0-.97-2.031c-.368-.368-.53-.548-.53-.97a2.042 2.042 0 0 1 1.086-1.579.75.75 0 0 0-.671-1.342 3.52 3.52 0 0 0-1.915 2.921 2.673 2.673 0 0 0 .97 2.031c.366.367.53.548.53.97z" transform="translate(1 -68.272) translate(-1 68.272) translate(-155.66 -114.955)"/>
                <path d="M308.7 125.464a2.042 2.042 0 0 1-1.089 1.581.75.75 0 0 0 .674 1.341 3.522 3.522 0 0 0 1.915-2.922 2.673 2.673 0 0 0-.97-2.031c-.368-.368-.53-.548-.53-.97a2.042 2.042 0 0 1 1.086-1.579.75.75 0 0 0-.671-1.342 3.519 3.519 0 0 0-1.915 2.921 2.673 2.673 0 0 0 .97 2.031c.367.368.53.549.53.97z" transform="translate(1 -68.272) translate(-1 68.272) translate(-280.191 -114.962)"/>
                <path d="M111.688 241.932a1.493 1.493 0 0 1 1.264.7.751.751 0 0 0 1 .251 1.468 1.468 0 0 1 1.741.2.75.75 0 0 0 1.256-.5 1.492 1.492 0 0 1 2.737-.725.778.778 0 0 0 1.251 0 1.535 1.535 0 0 1 2.347-.188.751.751 0 0 0 1.254-.251 1.5 1.5 0 0 1 2.9.5c0 .016-.01.088-.012.1a.751.751 0 0 0 1 .763 1.416 1.416 0 0 1 1.606.388.751.751 0 0 0 1.254-.251 1.489 1.489 0 0 1 2.841.126.75.75 0 0 0 1 .5 1.493 1.493 0 0 1 1.821.59.749.749 0 0 0 1 .251 1.489 1.489 0 0 1 1.85.3.75.75 0 0 0 1.117-1 3.016 3.016 0 0 0-3.11-.86 2.99 2.99 0 0 0-2.52-.86 2.983 2.983 0 0 0-4.93-.411 2.961 2.961 0 0 0-1.52-.365 2.994 2.994 0 0 0-5.23-1.139 3.07 3.07 0 0 0-3.3.3 2.988 2.988 0 0 0-4.567 1.038 2.953 2.953 0 0 0-1.936-.061 2.98 2.98 0 0 0-2.124-.886.75.75 0 0 0 0 1.5z" transform="translate(1 -68.272) translate(-1 68.272) translate(-101.185 -223.927)"/>
                <path d="M44.264 324.262H.752a.75.75 0 0 0-.75.75 3.755 3.755 0 0 0 3.751 3.751h.792a6.762 6.762 0 0 0 6.711 6h22.506a6.761 6.761 0 0 0 6.71-6h.792a3.755 3.755 0 0 0 3.751-3.751.75.75 0 0 0-.751-.75zm-3 3h-1.5a.75.75 0 0 0-.75.75 5.258 5.258 0 0 1-5.251 5.251H11.255a5.259 5.259 0 0 1-5.2-4.5h30.707a.75.75 0 0 0 0-1.5H3.753a2.255 2.255 0 0 1-2.122-1.5h41.755a2.255 2.255 0 0 1-2.122 1.5z" transform="translate(1 -68.272) translate(-1 68.272) translate(-.002 -301.757)"/>
                <path d="M.455 240.367l10.5 4.5a.75.75 0 1 0 .591-1.379l-10.5-4.5a.75.75 0 0 0-.591 1.379z" transform="translate(1 -68.272) translate(-1 68.272) translate(0 -223.924)"/>
            </g>
        </g>
    </g>
</svg>
