<svg xmlns="http://www.w3.org/2000/svg" id="Group_12" width="37.355" height="43.437" viewBox="0 0 37.355 43.437">
    <defs>
        <style>
            .cls-1{fill:#58e3ff}
        </style>
    </defs>
    <g id="Group_11">
        <path id="Path_14" d="M223.347 205.71a1.479 1.479 0 0 1 1.765-.087l.187.125a.637.637 0 0 0 .706-1.061l-.187-.124a2.747 2.747 0 0 0-3.278.162.637.637 0 0 0 .807.987z" class="cls-1" transform="translate(-206.487 -186.781)"/>
        <path id="Path_15" d="M271.034 169.55a.72.72 0 0 1 .859-.042l.12.08a.637.637 0 0 0 .706-1.061l-.12-.08a1.988 1.988 0 0 0-2.372.117.637.637 0 1 0 .807.987z" class="cls-1" transform="translate(-250.128 -153.847)"/>
        <path id="Path_16" d="M321.8 205.738a.72.72 0 0 1 .859-.042l.12.08a.637.637 0 0 0 .706-1.061l-.12-.08a1.988 1.988 0 0 0-2.372.117.637.637 0 0 0 .807.987z" class="cls-1" transform="translate(-296.584 -186.965)"/>
        <path id="Path_17" d="M184.435 169.693a.634.634 0 0 0 .352-.107l.12-.08a.72.72 0 0 1 .859.042.637.637 0 1 0 .807-.987 1.988 1.988 0 0 0-2.372-.117l-.12.08a.637.637 0 0 0 .354 1.168z" class="cls-1" transform="translate(-171.245 -153.846)"/>
        <path id="Path_18" d="M133.673 205.883a.634.634 0 0 0 .352-.107l.12-.08a.72.72 0 0 1 .859.042.637.637 0 0 0 .807-.987 1.988 1.988 0 0 0-2.372-.117l-.12.08a.637.637 0 0 0 .354 1.168z" class="cls-1" transform="translate(-124.79 -186.966)"/>
        <path id="Path_19" d="M73.174 2.025a1.412 1.412 0 0 0-.615-.92l-1.27-.837A1.423 1.423 0 0 0 69.3.707l-2.129 3.432.556-1.951A1.423 1.423 0 0 0 66.711.421L65.238.045A1.422 1.422 0 0 0 63.5 1.109l-.465 2.056a.637.637 0 0 0 1.243.281l.465-2.056a.148.148 0 0 1 .181-.111l1.473.376a.148.148 0 0 1 .106.184L64.718 8.1l-2.353 3.8 1.312-5.8a.637.637 0 0 0-1.243-.281l-1.56 6.9h-.039a.557.557 0 0 1-.52-.362A3.466 3.466 0 0 0 57 10.093a.478.478 0 0 1-.343-.134l-.75-.716a3.46 3.46 0 0 0-4.787 0l-.75.716a.481.481 0 0 1-.343.134 3.467 3.467 0 0 0-3.312 2.261.557.557 0 0 1-.52.362h-.065a3.463 3.463 0 0 0-3.182 2.093l-.192.446a3.481 3.481 0 0 0-2.82 2.237.236.236 0 0 1-.157.144l-.033.009a3.454 3.454 0 0 0-2.46 2.628l-.053.251A1.482 1.482 0 0 0 35.845 22v3.706a14.494 14.494 0 0 0 8.476 13.171V41.3a2.143 2.143 0 0 0 2.14 2.141h14.11a2.143 2.143 0 0 0 2.14-2.141v-2.422A14.429 14.429 0 0 0 66 36.811a.637.637 0 1 0-.818-.978 13.212 13.212 0 0 1-8.466 3.073h-6.397a13.214 13.214 0 0 1-13.2-13.2v-.334h22.834a.637.637 0 1 0 0-1.275H37.12V22a.207.207 0 0 1 .207-.207h3.1a.637.637 0 0 0 0-1.275h-1.89a2.183 2.183 0 0 1 1.552-1.646l.033-.009a1.513 1.513 0 0 0 1.01-.93 2.2 2.2 0 0 1 2.054-1.433.637.637 0 0 0 .585-.385l.347-.8a2.189 2.189 0 0 1 2.011-1.323h.071a1.836 1.836 0 0 0 1.713-1.192 2.191 2.191 0 0 1 2.094-1.429 1.752 1.752 0 0 0 1.246-.487l.75-.716a2.187 2.187 0 0 1 3.026 0l.75.716a1.751 1.751 0 0 0 1.246.487 2.193 2.193 0 0 1 2.094 1.429 1.836 1.836 0 0 0 1.715 1.194h.066a2.189 2.189 0 0 1 2.011 1.323l.347.8a.637.637 0 0 0 .585.385 2.2 2.2 0 0 1 2.057 1.432 1.513 1.513 0 0 0 1.009.93l.034.009a2.183 2.183 0 0 1 1.557 1.646H43.145a.637.637 0 1 0 0 1.275h26.56a.207.207 0 0 1 .207.207v2.1h-7.177a.637.637 0 1 0 0 1.275h7.177v.334A13.053 13.053 0 0 1 67 33.982a.637.637 0 1 0 .993.8 14.509 14.509 0 0 0 3.2-9.075V22a1.482 1.482 0 0 0-1.393-1.476l-.053-.251a3.453 3.453 0 0 0-2.46-2.627l-.034-.009a.235.235 0 0 1-.157-.144 3.48 3.48 0 0 0-2.656-2.21l8.5-12.175a1.411 1.411 0 0 0 .231-1.083zM56.713 40.181a14.476 14.476 0 0 0 4.724-.795V41.3a.867.867 0 0 1-.866.866h-14.11a.867.867 0 0 1-.861-.866v-1.911a14.411 14.411 0 0 0 4.724.792h6.394zM71.9 2.377l-8.206 11.75a3.458 3.458 0 0 0-.748-.743l7.437-12a.148.148 0 0 1 .207-.046l1.27.836a.148.148 0 0 1 .04.208z" class="cls-1" transform="translate(-35.845)"/>
    </g>
</svg>
