<svg xmlns="http://www.w3.org/2000/svg" width="36.685" height="27.792" viewBox="0 0 36.685 27.792">
    <g>
        <g>
            <g>
                <path d="M36.119 75.007a2.709 2.709 0 0 0-1.856-1.069l-2.434-4.218-.387-5.913a1.865 1.865 0 0 0-2.9-1.429l-4.478 2.991a1.88 1.88 0 0 0-.826-.485 1.858 1.858 0 0 0-1.522.237 1.851 1.851 0 0 0-.984-.647l-7.792-2.088a1.865 1.865 0 0 0-2.284 2.284l.2.728-3.54-2.35a1.865 1.865 0 0 0-2.894 1.435l-.257 4.065-.043-.012a1.865 1.865 0 0 0-2.284 2.284l.83 3.1a2.713 2.713 0 0 0-2.1 1.086 2.757 2.757 0 0 0-.462 2.434c.98 3.473 3.627 6.5 7.468 8.555a4.154 4.154 0 0 0 1.286 2.689 4.205 4.205 0 0 0 2.913 1.169h13.14a4.206 4.206 0 0 0 2.913-1.169A4.155 4.155 0 0 0 29.112 86a14.463 14.463 0 0 0 7.465-8.542 2.771 2.771 0 0 0-.458-2.451zm-5.312-4.833l2.162 3.745h-3.735a.556.556 0 1 0-.7 0h-.59l.6-2.156a1.844 1.844 0 0 0-.334-1.652 1.88 1.88 0 0 0-.653-.523l.8-1.392a.754.754 0 0 1 1.305 0l1.14 1.975zM29.162 63.3a.753.753 0 0 1 1.17.577l.24 3.672a1.865 1.865 0 0 0-3.176.088l-1.041 1.8-.08.019-1.456.378-.219-3.277a1.894 1.894 0 0 0-.024-.193zm-4.707 7.78l2.1-.544a.791.791 0 0 1 .167-.025.757.757 0 0 1 .615.289.735.735 0 0 1 .134.666l-.677 2.452H25.75a.556.556 0 1 0-.7 0h-4.839a1.859 1.859 0 0 0-.251-.888l-.393-.68zm-2.642-4.68l.505-.338a.737.737 0 0 1 .619-.1.748.748 0 0 1 .552.677l.233 3.493-4.734 1.229-1.274-2.221zM19.1 73.919H9.522a.744.744 0 0 1 .1-.332l4.036-6.987a.753.753 0 0 1 1.305 0L19 73.587a.743.743 0 0 1 .1.332zm-7.175-10.264a.746.746 0 0 1 .728-.195l7.794 2.088a.749.749 0 0 1 .341.2l-3.631 2.432-1.231-2.133a1.865 1.865 0 0 0-3.23 0l-.243.42-.2-.134-.522-1.947a.746.746 0 0 1 .194-.731zm-6.394.9a.753.753 0 0 1 1.169-.58l5.2 3.454-1.6 2.765-5.04-1.35zm-2.425 5.251a.746.746 0 0 1 .728-.195l.7.186 5.192 1.391-1.065 1.843a1.859 1.859 0 0 0-.251.888H3.818l-.907-3.385a.746.746 0 0 1 .195-.728zm32.4 7.344c-.9 3.186-3.37 5.978-6.959 7.885H13.154a.556.556 0 1 0 0 1.112h14.819a3.124 3.124 0 0 1-3.06 2.594H11.772a3.124 3.124 0 0 1-3.06-2.594h2.218a.556.556 0 0 0 0-1.112H8.14c-3.595-1.91-6.064-4.707-6.964-7.9a1.655 1.655 0 0 1 .275-1.46 1.611 1.611 0 0 1 1.293-.648h31.2a1.606 1.606 0 0 1 1.29.646 1.668 1.668 0 0 1 .273 1.477z" transform="translate(0 -62.061) translate(0 62.061) translate(0 -62.061)"/>
            </g>
        </g>
        <g>
            <g transform="translate(0 -62.061) translate(25.217 67.631)">
                <circle cx=".556" cy=".556" r=".556"/>
            </g>
        </g>
        <g>
            <g transform="translate(0 -62.061) translate(26.551 65.519)">
                <circle cx=".556" cy=".556" r=".556"/>
            </g>
        </g>
        <g>
            <g transform="translate(0 -62.061) translate(28.626 64.482)">
                <circle cx=".556" cy=".556" r=".556"/>
            </g>
        </g>
        <g>
            <g transform="translate(0 -62.061) translate(12.1 63.963)">
                <circle cx=".556" cy=".556" r=".556"/>
            </g>
        </g>
        <g>
            <g transform="translate(0 -62.061) translate(16.843 65.741)">
                <circle cx=".556" cy=".556" r=".556"/>
            </g>
        </g>
        <g>
            <g transform="translate(0 -62.061) translate(19.437 69.669)">
                <circle cx=".556" cy=".556" r=".556"/>
            </g>
        </g>
        <g>
            <g transform="translate(0 -62.061) translate(21.66 68.928)">
                <circle cx=".556" cy=".556" r=".556"/>
            </g>
        </g>
        <g>
            <g transform="translate(0 -62.061) translate(20.03 67.965)">
                <circle cx=".556" cy=".556" r=".556"/>
            </g>
        </g>
        <g>
            <g transform="translate(0 -62.061) translate(8.398 68.337)">
                <circle cx=".556" cy=".556" r=".556"/>
            </g>
        </g>
        <g>
            <g transform="translate(0 -62.061) translate(6.172 67.529)">
                <circle cx=".556" cy=".556" r=".556"/>
            </g>
        </g>
        <g>
            <g transform="translate(0 -62.061) translate(6.163 65.528)">
                <circle cx=".556" cy=".556" r=".556"/>
            </g>
        </g>
        <g>
            <g transform="translate(0 -62.061) translate(8.39 66.632)">
                <circle cx=".556" cy=".556" r=".556"/>
            </g>
        </g>
        <g>
            <g transform="translate(0 -62.061) translate(7.431 72.189)">
                <circle cx=".556" cy=".556" r=".556"/>
            </g>
        </g>
        <g>
            <g transform="translate(0 -62.061) translate(5.949 70.707)">
                <circle cx=".556" cy=".556" r=".556"/>
            </g>
        </g>
        <g>
            <g transform="translate(0 -62.061) translate(30.034 71.744)">
                <circle cx=".556" cy=".556" r=".556"/>
            </g>
        </g>
        <g>
            <g transform="translate(0 -62.061) translate(28.626 69.965)">
                <circle cx=".556" cy=".556" r=".556"/>
            </g>
        </g>
        <g>
            <g transform="translate(0 -62.061) translate(21.141 72.485)">
                <circle cx=".556" cy=".556" r=".556"/>
            </g>
        </g>
        <g>
            <g transform="translate(0 -62.061) translate(23.364 71.67)">
                <circle cx=".556" cy=".556" r=".556"/>
            </g>
        </g>
        <g>
            <g transform="translate(0 -62.061) translate(11.878 71.003)">
                <circle cx=".556" cy=".556" r=".556"/>
            </g>
        </g>
        <g>
            <g transform="translate(0 -62.061) translate(13.656 68.187)">
                <circle cx=".556" cy=".556" r=".556"/>
            </g>
        </g>
        <g>
            <g transform="translate(0 -62.061) translate(14.101 72.485)">
                <circle cx=".556" cy=".556" r=".556"/>
            </g>
        </g>
        <g>
            <g transform="translate(0 -62.061) translate(14.842 70.262)">
                <circle cx=".556" cy=".556" r=".556"/>
            </g>
        </g>
        <g>
            <g transform="translate(0 -62.061) translate(16.324 72.485)">
                <circle cx=".556" cy=".556" r=".556"/>
            </g>
        </g>
    </g>
</svg>
