<svg xmlns="http://www.w3.org/2000/svg" width="30.672" height="30.67" viewBox="0 0 30.672 30.67">
    <g>
        <g>
            <g>
                <path d="M151.2 7.816a.6.6 0 0 0-1.072.536 7.068 7.068 0 1 1-3.543-3.339.6.6 0 1 0 .471-1.1 8.274 8.274 0 0 0-7.873.746 8.285 8.285 0 0 0-5.255-4.354 8.32 8.32 0 0 0-4.115-.059.6.6 0 0 0-.442.442 8.256 8.256 0 0 0 1.462 6.953q-.328.051-.653.129a.6.6 0 0 0-.442.442 8.269 8.269 0 0 0 9.367 10.1 8.269 8.269 0 0 0 12.1-10.5zm-20.743-6.483a7.075 7.075 0 0 1 7.763 4.088c-.088.08-.174.162-.258.247a8.277 8.277 0 0 0-1.045 1.277l-3.81-3.81a.6.6 0 1 0-.847.847l4.049 4.049q-.119.257-.219.521a8.319 8.319 0 0 0-3.761-1.006 7.018 7.018 0 0 1-1.872-6.213zm2.318 13.82a7.02 7.02 0 0 1-1.951-6.3 7.122 7.122 0 0 1 4.913.873 8.334 8.334 0 0 0-.086 3.106l-2.177-2.177a.6.6 0 0 0-.847.847l3.853 3.853.02.018a8.229 8.229 0 0 0 1.33 1.844 7.079 7.079 0 0 1-5.055-2.064z" transform="translate(0 -.017) translate(7.736 .017) translate(-129.141 -.017)"/>
            </g>
        </g>
        <g>
            <g>
                <path d="M17.876 117.573l-2.084-2.636c-1.1-1.393-2.157-2.849-3.139-4.328a.6.6 0 1 0-1 .663c1 1.506 2.076 2.99 3.2 4.409l1.188 1.5-.787-.092a15.586 15.586 0 0 1-9.9-5.177l-.106-.12a16.142 16.142 0 0 1-4-9.442l.3-.253a1.316 1.316 0 0 1 1.032-.3l.83.119a.6.6 0 0 0 .617-.319 1.315 1.315 0 0 1 1.46-.68l.622.141a66.132 66.132 0 0 0 3.038 6.114.6.6 0 0 0 1.044-.588 64.9 64.9 0 0 1-3.1-6.279 4.31 4.31 0 0 0-3.966-2.616 3.133 3.133 0 0 0-.378.024A4.979 4.979 0 0 1 4.2 94.5a.6.6 0 1 0-.847-.847 6.173 6.173 0 0 0-1.82 4.394v.086A3.121 3.121 0 0 0 0 100.813v.3c0 .327.01.654.029.979a.59.59 0 0 0 0 .065 17.337 17.337 0 0 0 4.316 10.43l.106.12a16.783 16.783 0 0 0 10.661 5.575l2.222.259a.591.591 0 0 0 .069 0 .6.6 0 0 0 .47-.97zM1.2 100.814a1.925 1.925 0 0 1 1.923-1.922 3.113 3.113 0 0 1 2.085.8 2.514 2.514 0 0 0-2.007.989l-.448-.064a2.516 2.516 0 0 0-1.551.278v-.081z" transform="translate(0 -.017) translate(0 5.615) translate(0 -93.474)"/>
            </g>
        </g>
        <g>
            <g>
                <path d="M174.744 345.275l-.01-.016a.6.6 0 0 0-1.021.626l.01.016a.6.6 0 0 0 1.021-.626z" transform="translate(0 -.017) translate(10.401 20.682) translate(-173.625 -344.973)"/>
            </g>
        </g>
        <g>
            <g>
                <path d="M455.562 91.688l-.091-.092a.6.6 0 0 0-.847.847l.078.079a.6.6 0 1 0 .86-.834z" transform="translate(0 -.017) translate(27.225 5.492) translate(-454.449 -91.421)"/>
            </g>
        </g>
        <g>
            <g>
                <path d="M278.075 89.931a6.11 6.11 0 1 0 6.11 6.11 6.117 6.117 0 0 0-6.11-6.11zm-4.521 8.028a4.909 4.909 0 0 1 0-3.837l3.323 1.919zm3.922 2.955A4.912 4.912 0 0 1 274.154 99l3.321-1.918zm0-5.911l-3.321-1.918a4.912 4.912 0 0 1 3.321-1.919zm1.2-3.836A4.912 4.912 0 0 1 282 93.086L278.674 95zm0 9.748v-3.837L282 99a4.913 4.913 0 0 1-3.326 1.915zm.6-4.874l3.323-1.919a4.909 4.909 0 0 1 0 3.837z" transform="translate(0 -.017) translate(16.293 5.403) translate(-271.965 -89.931)"/>
            </g>
        </g>
        <g>
            <g>
                <path d="M281.762 341.711a2.527 2.527 0 0 0-4.336 0 4.944 4.944 0 0 0 0 5.414 2.527 2.527 0 0 0 4.336 0 4.944 4.944 0 0 0 0-5.414zm-2.168 5.445c-.277 0-.7-.589-.7-1.478s.42-1.477.7-1.477.7.589.7 1.477-.423 1.478-.7 1.478zm1.767-2.459a1.769 1.769 0 0 0-3.535 0q-.01-.138-.01-.279c0-1.484.814-2.738 1.777-2.738s1.777 1.254 1.777 2.738q.001.141-.009.282z" transform="translate(0 -.017) translate(16.571 20.413) translate(-276.619 -340.482)"/>
            </g>
        </g>
        <g>
            <g>
                <path d="M402.157 399.122a4.944 4.944 0 0 0-3.828-3.828 2.527 2.527 0 0 0-3.066 3.066 4.944 4.944 0 0 0 3.828 3.828 3.471 3.471 0 0 0 .577.05 2.52 2.52 0 0 0 1.826-.714 2.667 2.667 0 0 0 .663-2.402zm-4.5 1.067q-.1-.091-.2-.191a3.489 3.489 0 0 1-1.009-1.836 1.509 1.509 0 0 1 .33-1.356 1.355 1.355 0 0 1 .985-.362 2.245 2.245 0 0 1 .372.032 3.488 3.488 0 0 1 1.836 1.009q.1.1.19.2a1.769 1.769 0 0 0-2.5 2.5zm2.988.488c-.2.2-.91.076-1.538-.552s-.748-1.341-.552-1.538a.394.394 0 0 1 .28-.086 1.959 1.959 0 0 1 1.257.638 2.238 2.238 0 0 1 .61 1.018.582.582 0 0 1-.056.52z" transform="translate(0 -.017) translate(23.676 23.694) translate(-395.213 -395.244)"/>
            </g>
        </g>
        <g>
            <g>
                <path d="M466.96 321.139a.6.6 0 1 0 .176.424.6.6 0 0 0-.176-.424z" transform="translate(0 -.017) translate(27.913 19.244) translate(-465.938 -320.963)"/>
            </g>
        </g>
        <g>
            <g>
                <path d="M404.969 340.657a.6.6 0 1 0 .176.423.6.6 0 0 0-.176-.423z" transform="translate(0 -.017) translate(24.199 20.413) translate(-403.946 -340.481)"/>
            </g>
        </g>
        <g>
            <g>
                <path d="M444.6 353.125a.6.6 0 1 0 .176.423.6.6 0 0 0-.176-.423z" transform="translate(0 -.017) translate(26.574 21.16) translate(-443.581 -352.949)"/>
            </g>
        </g>
    </g>
</svg>
