<svg xmlns="http://www.w3.org/2000/svg" width="25.794" height="27.951" viewBox="0 0 25.794 27.951">
    <g>
        <path d="M43.563 17.151a.409.409 0 0 0 .489-.31 11.728 11.728 0 0 0 .276-2.16h.132a1.093 1.093 0 0 0 1.091-1.091v-1.43a1.093 1.093 0 0 0-1.091-1.091h-.4l.545-.315a1.11 1.11 0 0 0 .406-1.515L42.331 4.6a1.108 1.108 0 0 0-1.515-.406l-.732.423.492-1.835a1.108 1.108 0 0 0-.784-1.358L34.618.038a1.111 1.111 0 0 0-1.358.784l-.15.558a.409.409 0 1 0 .791.212l.15-.558a.29.29 0 0 1 .355-.205l5.174 1.386a.29.29 0 0 1 .205.355l-.7 2.626-2.647 1.527a1.11 1.11 0 0 0-1.1-1.013H33.36l-.281-1.049.336-1.253a.409.409 0 0 0-.753-.305L32.05.822a1.11 1.11 0 0 0-1.358-.784l-5.174 1.386a1.108 1.108 0 0 0-.784 1.358l.492 1.835-.732-.423a1.108 1.108 0 0 0-1.515.406L20.3 9.239a1.11 1.11 0 0 0 .406 1.515l.545.315h-.4a1.093 1.093 0 0 0-1.091 1.091v1.43a1.093 1.093 0 0 0 1.091 1.091h.132a11.685 11.685 0 0 0 7.2 10.383.045.045 0 0 1 .028.053l-.5 1.935a.719.719 0 0 0 .7.9h8.514a.719.719 0 0 0 .7-.9l-.5-1.935a.045.045 0 0 1 .028-.053 11.776 11.776 0 0 0 6.323-6.333.409.409 0 1 0-.757-.313 10.951 10.951 0 0 1-5.88 5.889.868.868 0 0 0-.506 1.015l.471 1.81h-8.277L29 25.323a.868.868 0 0 0-.506-1.015 10.834 10.834 0 0 1-6.694-9.627h2.355a.409.409 0 1 0 0-.819h-3.306a.273.273 0 0 1-.273-.273v-1.428a.273.273 0 0 1 .273-.273h23.612a.273.273 0 0 1 .273.273v1.429a.273.273 0 0 1-.273.273H26.067a.409.409 0 0 0 0 .819h17.442a10.9 10.9 0 0 1-.256 1.98.409.409 0 0 0 .31.489zm-6.976-9.569L41.226 4.9a.29.29 0 0 1 .4.106L44.3 9.649a.29.29 0 0 1-.106.4l-1.773 1.024h-4.156l-1.784-3.095a.29.29 0 0 1 .106-.396zm-.145 1.966l.878 1.52h-.878zm-.819-2.729v4.25h-5.936v-4.25a.29.29 0 0 1 .29-.29h5.356a.29.29 0 0 1 .29.29zm-6.755 4.25h-.878l.878-1.52zm-3.343-8.5a.29.29 0 0 1 .205-.355L30.9.829a.29.29 0 0 1 .355.205l1 3.726v.015l.25.935h-2.528a1.11 1.11 0 0 0-1.1 1.013L26.229 5.2zm-4.409 7.475a.29.29 0 0 1-.106-.4l2.678-4.634a.29.29 0 0 1 .4-.106l4.639 2.678a.29.29 0 0 1 .106.4l-1.784 3.091h-4.16z" transform="translate(-18.629 1.223) translate(-1.129 -1.223)"/>
        <path d="M212.973 447.334a.374.374 0 1 0 0 .747h3.577a.374.374 0 1 0 0-.747z" transform="translate(-18.629 1.223) translate(-183.235 -425.05)"/>
    </g>
</svg>
